<mxfile host="Electron" agent="Mozilla/5.0 (Windows NT 10.0; Win64; x64) AppleWebKit/537.36 (KHTML, like Gecko) draw.io/28.0.6 Chrome/138.0.7204.100 Electron/37.2.3 Safari/537.36" version="28.0.6">
  <diagram name="Page-1" id="58cdce13-f638-feb5-8d6f-7d28b1aa9fa0">
    <mxGraphModel dx="1872" dy="881" grid="1" gridSize="10" guides="1" tooltips="1" connect="1" arrows="1" fold="1" page="1" pageScale="1" pageWidth="1100" pageHeight="850" background="none" math="0" shadow="0">
      <root>
        <mxCell id="0" />
        <mxCell id="1" parent="0" />
        <mxCell id="382b91b5511bd0f7-6" value="Main Menu" style="rounded=1;whiteSpace=wrap;html=1;arcSize=24;fillColor=#ffffc0;strokeColor=#ff0000;shadow=0;comic=0;labelBackgroundColor=none;fontFamily=Verdana;fontSize=16;fontColor=#000000;align=center;" parent="1" vertex="1">
          <mxGeometry x="250" y="90" width="120" height="60" as="geometry" />
        </mxCell>
        <mxCell id="ALvCPMUVL3Sk2Me1Jb2J-4" style="edgeStyle=orthogonalEdgeStyle;shape=connector;rounded=1;orthogonalLoop=1;jettySize=auto;html=1;strokeColor=#ff0000;align=left;verticalAlign=middle;fontFamily=Verdana;fontSize=12;fontColor=default;labelBackgroundColor=none;endArrow=open;endSize=8;" edge="1" parent="1" source="ALvCPMUVL3Sk2Me1Jb2J-2" target="382b91b5511bd0f7-6">
          <mxGeometry relative="1" as="geometry" />
        </mxCell>
        <mxCell id="ALvCPMUVL3Sk2Me1Jb2J-5" value="Application&lt;div&gt;Startup&lt;/div&gt;" style="edgeLabel;html=1;align=center;verticalAlign=middle;resizable=0;points=[];fontFamily=Verdana;fontSize=12;fontColor=default;labelBackgroundColor=none;" vertex="1" connectable="0" parent="ALvCPMUVL3Sk2Me1Jb2J-4">
          <mxGeometry x="-0.0769" y="-1" relative="1" as="geometry">
            <mxPoint x="5" y="-21" as="offset" />
          </mxGeometry>
        </mxCell>
        <mxCell id="ALvCPMUVL3Sk2Me1Jb2J-2" value="START" style="ellipse;whiteSpace=wrap;html=1;fillColor=#d5e8d4;strokeColor=#82b366;fontStyle=1;fontSize=32;strokeWidth=3;gradientColor=none;gradientDirection=north;" vertex="1" parent="1">
          <mxGeometry x="20" y="80" width="120" height="80" as="geometry" />
        </mxCell>
        <mxCell id="ALvCPMUVL3Sk2Me1Jb2J-7" value="END" style="ellipse;whiteSpace=wrap;html=1;fillColor=#f8cecc;strokeColor=#b85450;fontStyle=1;fontSize=32;strokeWidth=3;gradientDirection=north;" vertex="1" parent="1">
          <mxGeometry x="800" y="380" width="120" height="80" as="geometry" />
        </mxCell>
        <mxCell id="ALvCPMUVL3Sk2Me1Jb2J-8" value="Pause Menu" style="rounded=1;whiteSpace=wrap;html=1;arcSize=24;fillColor=#ffffc0;strokeColor=#ff0000;shadow=0;comic=0;labelBackgroundColor=none;fontFamily=Verdana;fontSize=16;fontColor=#000000;align=center;" vertex="1" parent="1">
          <mxGeometry x="510" y="150" width="120" height="60" as="geometry" />
        </mxCell>
        <mxCell id="ALvCPMUVL3Sk2Me1Jb2J-9" value="Settings Menu" style="rounded=1;whiteSpace=wrap;html=1;arcSize=24;fillColor=#ffffc0;strokeColor=#ff0000;shadow=0;comic=0;labelBackgroundColor=none;fontFamily=Verdana;fontSize=16;fontColor=#000000;align=center;" vertex="1" parent="1">
          <mxGeometry x="280" y="260" width="120" height="60" as="geometry" />
        </mxCell>
        <mxCell id="ALvCPMUVL3Sk2Me1Jb2J-10" value="Game Active" style="rounded=1;whiteSpace=wrap;html=1;arcSize=24;fillColor=#ffffc0;strokeColor=#ff0000;shadow=0;comic=0;labelBackgroundColor=none;fontFamily=Verdana;fontSize=16;fontColor=#000000;align=center;" vertex="1" parent="1">
          <mxGeometry x="500" y="310" width="120" height="60" as="geometry" />
        </mxCell>
        <mxCell id="ALvCPMUVL3Sk2Me1Jb2J-11" value="Loading Assets" style="rounded=1;whiteSpace=wrap;html=1;arcSize=24;fillColor=#ffffc0;strokeColor=#ff0000;shadow=0;comic=0;labelBackgroundColor=none;fontFamily=Verdana;fontSize=16;fontColor=#000000;align=center;" vertex="1" parent="1">
          <mxGeometry x="280" y="440" width="120" height="60" as="geometry" />
        </mxCell>
      </root>
    </mxGraphModel>
  </diagram>
</mxfile>
